<svg width="1913" height="707" viewBox="0 0 1913 707" fill="none" xmlns="http://www.w3.org/2000/svg">
<path fill-rule="evenodd" clip-rule="evenodd" d="M461.241 25.1314C340.963 -21.6733 225.079 0.82527 160.514 60.2295C142.279 77.007 128.139 96.7289 119.156 118.66C98.1429 140.796 85.8251 167.691 85.2827 197.471C84.6259 233.529 101.235 273.726 140.395 314.735C168.536 344.205 215.336 371.527 276.004 395.372C310.867 412.975 351.257 428.99 396.147 443.176C447.075 459.27 503.812 473.016 564.875 484.06C558.581 493.576 551.458 502.814 543.471 511.711C500.418 559.669 432.2 597.764 332.917 616.128C15.091 674.915 -139.522 557.318 -177.071 491.396L-177.939 491.891C-140.115 558.296 14.9999 675.949 333.099 617.111C432.542 598.717 500.98 560.54 544.215 512.379C552.336 503.333 559.567 493.936 565.946 484.254C591.051 488.777 616.885 492.845 643.344 496.431C633.644 517.899 621.227 538.485 605.867 557.762C559.075 616.492 484.946 663.127 377.078 685.608C31.7751 757.572 -136.235 613.628 -177.059 532.872L-177.951 533.323C-136.88 614.567 31.6368 758.623 377.282 686.587C485.336 664.068 559.687 617.328 606.649 558.386C622.128 538.958 634.628 518.209 644.378 496.571C685.873 502.173 728.902 506.592 773.068 509.735C1056.49 529.902 1386.81 497.499 1659.37 387.464C1768.33 343.474 1850.87 323.104 1912.55 319.155C1974.23 315.205 2014.98 327.678 2040.42 349.305C2065.87 370.926 2076.1 401.771 2076.59 434.761C2077.08 467.757 2067.82 502.857 2054.31 532.892L2055.22 533.302C2068.77 503.171 2078.08 467.925 2077.59 434.747C2077.1 401.563 2066.8 370.404 2041.07 348.543C2015.35 326.687 1974.31 314.198 1912.49 318.157C1850.66 322.116 1768.01 342.526 1658.99 386.536C1386.61 496.501 1056.45 528.897 773.139 508.737C729.096 505.604 686.187 501.2 644.805 495.62C647.474 489.64 649.933 483.594 652.189 477.489C670.144 479.309 688.336 480.919 706.731 482.31C971.694 502.351 1278.71 476.926 1525.06 376.932C1708.57 302.446 1832.33 262.378 1903.98 253.202C1921.88 250.909 1936.51 250.549 1947.98 252.054C1959.47 253.559 1967.74 256.925 1973.01 262.032C1978.27 267.123 1980.59 274.005 1980.06 282.695C1979.52 291.403 1976.11 301.906 1969.9 314.163L1970.79 314.616C1977.03 302.3 1980.51 291.658 1981.05 282.757C1981.6 273.839 1979.21 266.649 1973.71 261.314C1968.22 255.997 1959.7 252.582 1948.11 251.062C1936.52 249.542 1921.8 249.911 1903.85 252.21C1832.06 261.405 1708.18 301.523 1524.68 376.006C1278.52 475.923 971.674 501.346 706.806 481.313C688.507 479.929 670.408 478.328 652.545 476.52C666.533 438.247 672.512 397.713 671.663 357.149C668.683 214.802 581.602 71.969 461.241 25.1314ZM651.518 476.415C665.523 438.199 671.512 397.706 670.663 357.17C667.69 215.143 580.79 72.7258 460.878 26.0634C340.882 -20.6319 225.421 1.86954 161.191 60.9654C143.714 77.0454 130.029 95.8344 121.072 116.68C124.969 112.725 129.149 108.928 133.592 105.3C193.025 56.7682 299.678 38.396 410.371 76.6256C521.15 114.885 601.336 231.579 604.079 347.919C605.046 388.91 596.399 429.864 576.087 467.328C600.678 470.766 625.855 473.805 651.518 476.415ZM118.134 121.222C98.3347 142.838 86.8046 168.83 86.2826 197.489C85.6319 233.21 102.082 273.165 141.118 314.044C167.611 341.789 210.791 367.675 266.665 390.549C224.26 368.141 190.671 343.275 167.912 316.421C125.373 266.227 107.351 217.05 108.064 172.964C108.358 154.741 111.854 137.397 118.134 121.222ZM276.412 394.458C229.693 370.864 192.967 344.437 168.675 315.774C126.253 265.718 108.356 216.769 109.064 172.98C109.371 153.988 113.178 135.955 120.011 119.212C124.379 114.622 129.126 110.238 134.224 106.075C193.329 57.8116 299.597 39.4261 410.044 77.5708C520.404 115.686 600.345 231.994 603.08 347.943C604.046 388.891 595.382 429.789 575.029 467.18C493.65 455.757 418.717 439.957 353.884 420.815C326.105 412.614 300.186 403.801 276.412 394.458ZM286.281 399.328C318.771 415 355.745 429.36 396.449 442.223C447.449 458.34 504.288 472.102 565.473 483.152C568.708 478.212 571.72 473.198 574.516 468.118C493.238 456.693 418.388 440.902 353.601 421.774C329.739 414.729 307.238 407.23 286.281 399.328ZM566.542 483.345C591.593 487.852 617.371 491.906 643.772 495.48C646.443 489.513 648.904 483.478 651.161 477.384C625.445 474.765 600.216 471.716 575.576 468.267C572.783 473.361 569.773 478.39 566.542 483.345Z" fill="url(#paint0_linear_333_32)"/>
<defs>
<linearGradient id="paint0_linear_333_32" x1="1334.72" y1="1162.6" x2="899.6" y2="28.0082" gradientUnits="userSpaceOnUse">
<stop stop-color="white"/>
<stop offset="1" stop-color="white" stop-opacity="0"/>
</linearGradient>
</defs>
</svg>
