<svg width="1913" height="707" viewBox="0 0 1913 707" fill="none" xmlns="http://www.w3.org/2000/svg">
<path fill-rule="evenodd" clip-rule="evenodd" d="M1438.37 25.1314C1558.65 -21.6733 1674.53 0.82527 1739.1 60.2295C1757.33 77.007 1771.47 96.7289 1780.45 118.66C1801.47 140.796 1813.79 167.691 1814.33 197.471C1814.99 233.529 1798.38 273.726 1759.22 314.735C1731.07 344.205 1684.28 371.527 1623.61 395.372C1588.74 412.975 1548.35 428.99 1503.46 443.176C1452.54 459.27 1395.8 473.016 1334.74 484.06C1341.03 493.576 1348.15 502.814 1356.14 511.711C1399.19 559.669 1467.41 597.764 1566.69 616.128C1884.52 674.915 2039.13 557.318 2076.68 491.396L2077.55 491.891C2039.73 558.297 1884.61 675.949 1566.51 617.111C1467.07 598.717 1398.63 560.54 1355.4 512.379C1347.27 503.333 1340.04 493.936 1333.66 484.254C1308.56 488.777 1282.73 492.845 1256.27 496.431C1265.97 517.899 1278.38 538.485 1293.74 557.762C1340.54 616.492 1414.67 663.127 1522.53 685.608C1867.84 757.572 2035.85 613.628 2076.67 532.872L2077.56 533.323C2036.49 614.567 1867.97 758.623 1522.33 686.587C1414.28 664.068 1339.92 617.328 1292.96 558.386C1277.48 538.958 1264.98 518.209 1255.23 496.571C1213.74 502.173 1170.71 506.592 1126.54 509.735C843.126 529.902 512.805 497.499 240.245 387.464C131.282 343.474 48.7365 323.104 -12.9387 319.155C-74.6152 315.205 -115.365 327.678 -140.813 349.305C-166.255 370.926 -176.49 401.771 -176.979 434.761C-177.468 467.757 -168.204 502.857 -154.697 532.892L-155.609 533.302C-169.159 503.171 -178.471 467.925 -177.979 434.747C-177.487 401.563 -167.186 370.404 -141.461 348.543C-115.743 326.687 -74.6968 314.198 -12.8748 318.157C48.9485 322.116 131.605 342.526 240.619 386.536C513.003 496.501 843.163 528.897 1126.47 508.737C1170.52 505.603 1213.42 501.2 1254.81 495.62C1252.14 489.64 1249.68 483.594 1247.42 477.489C1229.47 479.309 1211.27 480.919 1192.88 482.31C927.917 502.35 620.903 476.926 374.555 376.932C191.046 302.446 67.2819 262.378 -4.36377 253.202C-22.2708 250.909 -36.897 250.549 -48.3735 252.054C-59.8555 253.559 -68.1318 256.925 -73.4016 262.032C-78.6538 267.123 -80.9802 274.005 -80.4448 282.695C-79.9084 291.403 -76.4978 301.906 -70.2866 314.163L-71.1787 314.616C-77.4189 302.3 -80.8948 291.658 -81.4431 282.757C-81.9924 273.839 -79.6016 266.649 -74.0974 261.314C-68.6111 255.997 -60.0925 252.582 -48.5034 251.062C-36.9092 249.542 -22.189 249.911 -4.23657 252.21C67.5548 261.405 191.432 301.523 374.931 376.006C621.091 475.923 927.937 501.346 1192.81 481.313C1211.1 479.929 1229.2 478.328 1247.07 476.52C1233.08 438.247 1227.1 397.713 1227.95 357.149C1230.93 214.802 1318.01 71.969 1438.37 25.1314ZM1248.09 476.415C1234.09 438.199 1228.1 397.706 1228.95 357.17C1231.92 215.143 1318.82 72.7258 1438.73 26.0634C1558.73 -20.6319 1674.19 1.86954 1738.42 60.9654C1755.9 77.0454 1769.58 95.8344 1778.54 116.68C1774.64 112.725 1770.46 108.928 1766.02 105.3C1706.59 56.7682 1599.93 38.396 1489.24 76.6256C1378.46 114.885 1298.28 231.579 1295.53 347.919C1294.56 388.91 1303.21 429.864 1323.52 467.328C1298.93 470.766 1273.76 473.805 1248.09 476.415ZM1781.48 121.222C1801.28 142.838 1812.81 168.83 1813.33 197.489C1813.98 233.21 1797.53 273.165 1758.49 314.044C1732 341.789 1688.82 367.674 1632.95 390.549C1675.35 368.141 1708.94 343.275 1731.7 316.421C1774.24 266.227 1792.26 217.05 1791.55 172.964C1791.25 154.741 1787.76 137.397 1781.48 121.222ZM1623.2 394.458C1669.92 370.864 1706.64 344.437 1730.94 315.774C1773.36 265.718 1791.26 216.769 1790.55 172.98C1790.24 153.988 1786.43 135.955 1779.6 119.212C1775.23 114.622 1770.49 110.238 1765.39 106.075C1706.28 57.8116 1600.01 39.4261 1489.57 77.5708C1379.21 115.686 1299.27 231.994 1296.53 347.943C1295.57 388.891 1304.23 429.789 1324.58 467.18C1405.96 455.757 1480.89 439.957 1545.73 420.815C1573.51 412.614 1599.42 403.801 1623.2 394.458ZM1613.33 399.328C1580.84 415 1543.87 429.36 1503.16 442.223C1452.16 458.34 1395.32 472.102 1334.14 483.152C1330.9 478.212 1327.89 473.198 1325.09 468.118C1406.37 456.693 1481.22 440.902 1546.01 421.774C1569.87 414.729 1592.37 407.23 1613.33 399.328ZM1333.07 483.345C1308.02 487.852 1282.24 491.906 1255.84 495.48C1253.17 489.513 1250.71 483.478 1248.45 477.384C1274.17 474.765 1299.4 471.716 1324.04 468.267C1326.83 473.361 1329.84 478.39 1333.07 483.345Z" fill="url(#paint0_linear_323_19)"/>
<defs>
<linearGradient id="paint0_linear_323_19" x1="564.892" y1="1162.6" x2="1000.01" y2="28.0082" gradientUnits="userSpaceOnUse">
<stop stop-color="white"/>
<stop offset="1" stop-color="white" stop-opacity="0"/>
</linearGradient>
</defs>
</svg>
